<?xml version="1.0" standalone="no"?>
<!DOCTYPE svg PUBLIC "-//W3C//DTD SVG 20010904//EN"
 "http://www.w3.org/TR/2001/REC-SVG-20010904/DTD/svg10.dtd">
<svg version="1.0" xmlns="http://www.w3.org/2000/svg"
 width="256.000000pt" height="256.000000pt" viewBox="0 0 256.000000 256.000000"
 preserveAspectRatio="xMidYMid meet">
<metadata>
Created by potrace 1.16, written by Peter Selinger 2001-2019
</metadata>
<g transform="translate(0.000000,256.000000) scale(0.100000,-0.100000)"
fill="#000000" stroke="none">
<path d="M640 2150 c-133 -6 -164 -11 -217 -32 -71 -29 -81 -28 -25 1 20 11
33 20 29 21 -13 0 -85 -39 -93 -51 -4 -8 -3 -9 4 -5 18 11 14 0 -5 -15 -11
-10 -14 -10 -9 -1 26 44 -57 -30 -94 -83 -7 -11 8 3 34 30 47 49 47 49 12 5
-69 -84 -90 -143 -94 -256 -4 -104 3 -135 47 -190 9 -11 1 -4 -18 15 -18 20
-29 27 -23 16 16 -31 59 -68 72 -60 6 3 10 3 9 -2 -3 -18 2 -27 9 -16 4 6 7
-26 7 -70 0 -45 6 -91 12 -102 8 -14 8 -25 0 -40 -6 -11 -11 -55 -11 -97 -1
-78 -1 -78 -28 -78 -38 0 -78 -17 -113 -48 l-30 -27 25 29 c14 16 39 35 55 42
17 7 24 13 16 14 -20 0 -72 -37 -95 -68 -11 -14 -14 -22 -7 -17 10 6 11 2 5
-16 -5 -13 -9 -74 -9 -136 0 -61 -2 -109 -5 -106 -3 2 -8 53 -11 111 l-6 107
-1 -95 c-1 -100 7 -135 28 -135 7 0 15 -6 18 -14 3 -9 0 -11 -9 -6 -8 5 -2 -5
13 -21 26 -28 27 -36 31 -139 l3 -110 2 113 c2 107 1 115 -21 133 l-22 20 27
-16 c26 -16 27 -19 30 -133 2 -64 7 -126 12 -136 8 -15 6 -18 -5 -11 -8 5 -3
-4 11 -19 25 -28 68 -57 57 -38 -4 5 5 7 21 4 20 -4 22 -7 10 -11 -10 -3 437
-6 992 -6 555 0 1002 3 992 6 -12 4 -10 7 10 11 16 3 25 1 21 -4 -11 -19 32
10 57 38 14 15 19 24 11 19 -11 -7 -13 -4 -5 11 5 10 10 72 12 136 3 114 4
117 30 133 l27 16 -22 -20 c-22 -18 -23 -26 -21 -133 l2 -113 3 110 c4 103 5
111 31 139 15 16 21 26 13 21 -9 -5 -12 -3 -9 6 3 8 11 14 18 14 21 0 29 35
28 135 l-1 95 -6 -107 c-3 -58 -8 -109 -11 -111 -3 -3 -5 45 -5 106 0 62 -4
123 -9 136 -6 18 -5 22 5 16 7 -5 4 3 -7 17 -23 31 -75 68 -95 68 -8 -1 0 -7
16 -14 17 -7 41 -26 55 -42 l25 -29 -30 27 c-35 31 -75 48 -113 48 -27 0 -27
0 -28 78 0 42 -5 86 -11 97 -8 15 -8 26 0 40 6 11 12 57 12 102 0 44 3 76 7
70 7 -11 12 -2 9 16 -1 5 3 5 9 2 13 -8 56 29 72 60 6 11 -5 4 -23 -16 -19
-19 -27 -26 -18 -15 44 55 51 86 47 190 -4 113 -25 172 -94 256 -35 44 -35 44
12 -5 26 -27 41 -41 34 -30 -37 53 -120 127 -94 83 5 -9 2 -9 -9 1 -19 15 -23
26 -5 15 7 -4 8 -3 4 5 -8 12 -80 51 -93 51 -4 -1 9 -10 30 -21 56 -29 45 -30
-25 -1 -62 26 -66 27 -388 32 -296 5 -358 1 -346 -19 3 -4 1 -13 -4 -21 -12
-19 9 -60 34 -65 12 -3 158 -6 326 -7 344 -3 357 -6 435 -83 57 -57 75 -106
75 -202 0 -138 117 -123 -989 -123 -1108 0 -996 -13 -996 117 1 127 50 208
159 266 36 19 60 22 196 25 123 3 159 7 173 19 24 22 21 59 -5 77 -12 9 -17
16 -11 16 6 0 21 -12 32 -26 12 -15 21 -22 21 -17 0 10 -43 54 -51 51 -2 0
-74 -4 -159 -8z m1528 -689 c2 -30 -2 -59 -8 -65 -7 -7 -232 -12 -708 -16
l-697 -5 -10 -22 c-8 -20 -17 -23 -60 -23 -43 0 -52 3 -60 23 -9 20 -17 22
-100 24 -138 4 -135 3 -135 72 0 32 3 61 7 64 3 4 403 6 887 5 l881 -3 3 -54z
m-238 -471 l0 -40 -293 0 c-316 0 -332 -2 -325 -51 l3 -24 308 -3 c299 -2 307
-3 307 -22 0 -20 -8 -20 -578 -20 -569 0 -579 0 -597 -20 -15 -16 -17 -26 -9
-48 l9 -27 748 -6 c460 -4 752 -10 758 -16 5 -5 9 -50 7 -99 l-3 -89 -979 -3
c-715 -1 -982 1 -992 9 -17 14 -19 150 -3 180 9 18 20 20 105 18 105 -2 124 6
124 52 0 42 -24 49 -162 49 -83 0 -128 4 -136 12 -7 7 -12 43 -12 90 0 63 3
79 18 87 11 7 306 10 860 11 l842 0 0 -40z"/>
<path d="M1012 2151 c-8 -4 -13 -11 -13 -15 3 -19 0 -27 -8 -21 -5 3 -13 0
-17 -7 -4 -7 -3 -9 1 -5 5 4 16 -7 25 -25 l15 -33 131 -3 c143 -3 147 -1 164
57 14 48 -3 55 -142 52 -66 -1 -127 -5 -136 -8 -10 -4 -13 -2 -8 5 8 14 6 15
-12 3z"/>
</g>
</svg>
